<svg height="480pt" viewBox="-52 0 480 480" width="480pt" xmlns="http://www.w3.org/2000/svg"><path d="m360 48h-16v-40h-336v464h360v-424zm-272 320c0-8.800781 10.742188-16 24-16s24 7.199219 24 16-10.742188 16-24 16-24-7.160156-24-16zm168 0c-13.257812 0-24-7.199219-24-16s10.742188-16 24-16 24 7.199219 24 16-10.742188 16-24 16zm24-104-144 32v-40l144-32zm0-88h-160v-96h160zm0 0" fill="#78b9eb"/><g fill="#006df0"><path d="m112 184h176v-112h-176zm16-96h144v80h-144zm0 0"/><path d="m144 104h112v16h-112zm0 0"/><path d="m144 136h32v16h-32zm0 0"/><path d="m192 136h64v16h-64zm0 0"/><path d="m376 16v-16h-376v480h376v-440h-24v-24zm-360 0h320v24h-320zm0 448v-408h24v408zm344-408v408h-304v-408zm0 0"/><path d="m128 347.199219c-5.0625-2.132813-10.503906-3.222657-16-3.199219-17.945312 0-32 10.535156-32 24s14.054688 24 32 24 32-10.535156 32-24v-65.601562l128-28.453126v57.253907c-5.0625-2.132813-10.503906-3.222657-16-3.199219-17.945312 0-32 10.535156-32 24s14.054688 24 32 24 32-10.535156 32-24v-137.976562l-160 35.578124zm-16 28.800781c-9.769531 0-16-4.734375-16-8s6.230469-8 16-8 16 4.734375 16 8-6.230469 8-16 8zm144-16c-9.769531 0-16-4.734375-16-8s6.230469-8 16-8 16 4.734375 16 8-6.230469 8-16 8zm-112-97.601562 128-28.4375v23.640624l-128 28.421876zm0 0"/><path d="m128 416h128v16h-128zm0 0"/></g></svg>